PathFileType	4	(X/Y/Z)	./resultDataOpenSim/trcMotMarkerGrf/sub10/qtm-13-02.trc
DataRate	CameraRate	NumFrames	NumMarkers	Units	OrigDataRate	OrigDataStartFrame	OrigNumFrames
250.000000	250.000000	10	24	m	250.000000	59	468
Frame#	Time	L.Toe.Tip			R.Toe.Tip			L.Ankle.Lat			R.Ankle.Lat			L.Ankle.Med			R.Ankle.Med			L.Heel			R.Heel			L.Knee.Lat			R.Knee.Lat			L.Knee.Med			R.Knee.Med			L.Thigh.Upper			R.Thigh.Upper			L.ASIS			R.ASIS			V.Sacral			L.Acromium			R.Acromium			C7			L.Elbow			R.Elbow			L.Wrist.Lat			R.Wrist.Lat
		X1	Y1	Z1	X2	Y2	Z2	X3	Y3	Z3	X4	Y4	Z4	X5	Y5	Z5	X6	Y6	Z6	X7	Y7	Z7	X8	Y8	Z8	X9	Y9	Z9	X10	Y10	Z10	X11	Y11	Z11	X12	Y12	Z12	X13	Y13	Z13	X14	Y14	Z14	X15	Y15	Z15	X16	Y16	Z16	X17	Y17	Z17	X18	Y18	Z18	X19	Y19	Z19	X20	Y20	Z20	X21	Y21	Z21	X22	Y22	Z22	X23	Y23	Z23	X24	Y24	Z24

59	0.232	-1.3946454	0.06300997	-0.19073597	-0.74066858	0.039183512	-0.017796303	-1.3955936	0.19921819	-0.23667375	-0.88775395	0.050460432	0.011405475	-1.3644499	0.19698925	-0.15925032	-0.86163962	0.082012221	-0.068047107	-1.437102	0.24776426	-0.19150781	-0.93069497	0.028954119	-0.041017454	-1.0927064	0.4258869	-0.25640291	-0.86901239	0.44888328	0.060557689	-1.0675299	0.37937357	-0.14696273	-0.85629997	0.46164087	-0.065924112	-1.0308474	0.8031537	-0.26297419	-0.96509793	0.85713783	0.11961114	-0.95594422	0.90952808	-0.20648012	-0.91624868	0.94377148	0.028677991	-1.1323054	0.93878646	-0.057884711	-0.99561695	1.402107	-0.2214768	-1.0067326	1.3942215	0.098294788	-1.0833661	1.423747	-0.065602331	-1.0255238	1.0617637	-0.29995711	-1.1322508	1.0766096	0.12485316	-0.81676756	0.92241723	-0.28915926	-1.0831459	0.84377739	0.17562411
60	0.236	-1.3861451	0.065684096	-0.19198938	-0.74055582	0.039103282	-0.017848799	-1.3851125	0.20199547	-0.23696301	-0.88729483	0.050436013	0.011418603	-1.3545859	0.19921017	-0.15931975	-0.86139708	0.08205442	-0.067995774	-1.4264129	0.25096648	-0.19138336	-0.93073277	0.028990414	-0.040969921	-1.0810296	0.42558007	-0.25651852	-0.86644761	0.44893366	0.060864404	-1.0561655	0.38015061	-0.14642162	-0.85377144	0.46140242	-0.065577238	-1.0235723	0.80340605	-0.26247165	-0.9608888	0.85733388	0.12015995	-0.9499546	0.91020101	-0.20603165	-0.91146619	0.94407602	0.029176725	-1.1268069	0.93888965	-0.057983718	-0.98967112	1.4026312	-0.22101946	-0.99997811	1.3948307	0.098816441	-1.0773302	1.4248054	-0.064732481	-1.0215002	1.0626487	-0.2992379	-1.1252955	1.0768375	0.12650836	-0.81426755	0.92074274	-0.28993488	-1.0733567	0.844127	0.17647548
61	0.24	-1.3767175	0.068302764	-0.19341523	-0.74045154	0.039031598	-0.017898199	-1.3746311	0.20467013	-0.23717265	-0.88691668	0.05042609	0.011433736	-1.3442649	0.20132497	-0.15939494	-0.86115663	0.082092736	-0.067959449	-1.4159295	0.25385092	-0.1911463	-0.9307786	0.029033774	-0.040912694	-1.0692995	0.42540611	-0.25654679	-0.86402692	0.44896223	0.061184496	-1.0446482	0.38109746	-0.14584772	-0.85146294	0.46121027	-0.065219068	-1.0164417	0.80370233	-0.26204555	-0.95661283	0.85752515	0.12070546	-0.94405451	0.91099174	-0.20561739	-0.9064895	0.94440513	0.029738826	-1.1213131	0.93899338	-0.058092972	-0.98370537	1.4031818	-0.22058231	-0.99322149	1.3954751	0.099292458	-1.0713028	1.4258932	-0.063870573	-1.0175287	1.0635689	-0.29854027	-1.1183736	1.0771158	0.12816253	-0.81202524	0.91910848	-0.29077801	-1.0637659	0.84451404	0.17729371
62	0.244	-1.3664215	0.070733386	-0.1949235	-0.74036106	0.038968302	-0.017938562	-1.3640759	0.2071956	-0.23730083	-0.88678407	0.050408392	0.011525976	-1.3336853	0.20334089	-0.15944363	-0.86092189	0.082117957	-0.067930044	-1.4054648	0.25633758	-0.19085819	-0.93083073	0.029081372	-0.040829405	-1.0575053	0.42537561	-0.25646568	-0.86173578	0.44895423	0.061519125	-1.0331491	0.38214018	-0.14523305	-0.84943338	0.46106532	-0.064836415	-1.0095061	0.80405912	-0.26176051	-0.95217763	0.85772753	0.12126022	-0.93829677	0.91187581	-0.20525913	-0.90103857	0.94479675	0.03044466	-1.1158645	0.93915726	-0.058144285	-0.97774389	1.4037622	-0.22017178	-0.98648382	1.3961558	0.099723512	-1.0653005	1.4269829	-0.063032974	-1.0136247	1.0645236	-0.29791122	-1.1114777	1.0774236	0.12981333	-0.81002981	0.91751859	-0.29166813	-1.0541625	0.84495979	0.17810006
63	0.248	-1.3553336	0.072906258	-0.1964403	-0.74028133	0.038912992	-0.01797095	-1.3533733	0.20953549	-0.23734467	-0.88702334	0.050364194	0.011765715	-1.3230028	0.20526374	-0.15944579	-0.86069579	0.082128487	-0.067898348	-1.3948142	0.25837692	-0.19057915	-0.93088538	0.029130771	-0.040718318	-1.0456237	0.42550986	-0.2562707	-0.85952753	0.44891748	0.061869327	-1.0219621	0.38320042	-0.14454131	-0.84753818	0.46095895	-0.064456842	-1.0027132	0.80450371	-0.26156906	-0.94766431	0.85793937	0.12178819	-0.93263874	0.91286389	-0.20494771	-0.89518527	0.94525116	0.031296728	-1.11047	0.9393992	-0.058165908	-0.97181052	1.4043777	-0.21978606	-0.97981044	1.3968669	0.10011105	-1.0593369	1.4280591	-0.062228658	-1.0097931	1.0655139	-0.29735975	-1.1045951	1.0777377	0.13145784	-0.80814961	0.91597522	-0.29255353	-1.0443493	0.84547905	0.17891332
64	0.252	-1.3435281	0.074814182	-0.19792741	-0.74020509	0.038865135	-0.017996924	-1.3424674	0.21167323	-0.23732251	-0.88745482	0.050305664	0.012078713	-1.3122268	0.20709077	-0.15940824	-0.86048164	0.082130533	-0.067856425	-1.3839795	0.26000804	-0.19029081	-0.93093775	0.029182573	-0.040603785	-1.0336328	0.42583015	-0.25598385	-0.85738016	0.44886269	0.062225853	-1.0110754	0.38424972	-0.14379402	-0.84555067	0.46087835	-0.06413315	-0.99595098	0.8050705	-0.26135034	-0.94328689	0.85815567	0.12223508	-0.92696495	0.91398509	-0.20466247	-0.88916607	0.94575191	0.032263424	-1.1051449	0.93972662	-0.058217836	-0.96590685	1.4050304	-0.21940338	-0.97327543	1.3976052	0.10045311	-1.0534208	1.4291193	-0.061454406	-1.0060182	1.0665487	-0.29683608	-1.0977088	1.0780409	0.13309822	-0.80621641	0.91448542	-0.29338047	-1.0341923	0.84607936	0.17972665
65	0.256	-1.3310697	0.076487852	-0.19939332	-0.74013071	0.03882395	-0.018014818	-1.3313292	0.21359883	-0.23727053	-0.88755604	0.050279338	0.012225878	-1.3012209	0.20881184	-0.15934436	-0.86028168	0.082133167	-0.067800943	-1.3732025	0.26132645	-0.18994076	-0.93098271	0.029239048	-0.040513494	-1.0215335	0.42633854	-0.25564344	-0.8553163	0.44878514	0.062572934	-1.000156	0.38531144	-0.14306947	-0.8434017	0.46081279	-0.063888558	-0.98915677	0.80577968	-0.26101951	-0.93917949	0.85838193	0.12257597	-0.921208	0.91523711	-0.20440537	-0.88321602	0.94628272	0.033299435	-1.0999482	0.94017835	-0.0583057	-0.96002746	1.4057204	-0.21900177	-0.9669409	1.3983794	0.10074955	-1.047557	1.430162	-0.060704906	-1.0022561	1.0676375	-0.29621993	-1.090807	1.0783274	0.13474195	-0.8041531	0.91305632	-0.29412773	-1.0236859	0.84676114	0.18051574
66	0.26	-1.3180131	0.077964947	-0.20087632	-0.74006529	0.038788759	-0.018020475	-1.3199578	0.21529642	-0.23721596	-0.88699934	0.050318764	0.012064932	-1.2898688	0.21041653	-0.15925349	-0.86009538	0.082144027	-0.067733641	-1.3626497	0.26237441	-0.18953726	-0.93101617	0.02930062	-0.040454045	-1.0093768	0.42700537	-0.2552792	-0.85335587	0.44868431	0.06290712	-0.98898035	0.38641263	-0.14240286	-0.84122201	0.46075857	-0.063685485	-0.98237899	0.80662189	-0.26059066	-0.93523212	0.85865533	0.12284431	-0.91541824	0.916568	-0.20419618	-0.87758216	0.94682824	0.034325342	-1.0949392	0.94081589	-0.058375736	-0.95418843	1.4064477	-0.21858537	-0.96076061	1.3992105	0.1010247	-1.0417464	1.4311819	-0.059983065	-0.99843152	1.0687761	-0.29530622	-1.0838942	1.0785984	0.13639493	-0.80203447	0.91168906	-0.29481767	-1.0129938	0.84751871	0.18127484
67	0.264	-1.3043928	0.079266408	-0.20239965	-0.7400188	0.038760248	-0.018009166	-1.3083616	0.21674751	-0.23715816	-0.88612205	0.050401591	0.011761282	-1.2782012	0.21189075	-0.15912971	-0.85992099	0.082167944	-0.067656849	-1.3522063	0.26309747	-0.18911906	-0.93103792	0.029365581	-0.040416706	-0.99725423	0.42778604	-0.2548954	-0.85148253	0.44857945	0.063241479	-0.9775903	0.38756247	-0.14175643	-0.83916352	0.46071604	-0.063460628	-0.97571773	0.80757318	-0.26012713	-0.93122891	0.85902679	0.12309554	-0.9096901	0.91791567	-0.20403944	-0.87245363	0.94737616	0.035253725	-1.0900797	0.94164785	-0.058414189	-0.94841439	1.4072117	-0.21817251	-0.95454297	1.4001212	0.10133285	-1.035986	1.4321759	-0.059297366	-0.99446428	1.0699473	-0.2938695	-1.0769863	1.0788539	0.13805332	-0.80003737	0.91038299	-0.29549687	-1.0023627	0.84834637	0.18202952
68	0.268	-1.2902334	0.080386178	-0.2039375	-0.7399982	0.038740855	-0.017977725	-1.2965569	0.21794434	-0.23707582	-0.88557995	0.050473958	0.011605261	-1.2663297	0.21320705	-0.15898046	-0.85975861	0.082206632	-0.067569183	-1.3416971	0.26343342	-0.18867886	-0.9310518	0.029432559	-0.04039418	-0.98523949	0.42865338	-0.25446786	-0.84967039	0.44849316	0.063589133	-0.96609591	0.3887675	-0.14108025	-0.83725592	0.46068151	-0.063181084	-0.96922338	0.80861797	-0.25966502	-0.92713009	0.85950519	0.12333495	-0.90406262	0.91925133	-0.2039185	-0.86779343	0.94792943	0.03606486	-1.0852172	0.94258091	-0.058534382	-0.94270451	1.4080164	-0.21776733	-0.9481335	1.4011096	0.10170973	-1.030271	1.4331501	-0.058653285	-0.99036232	1.0711393	-0.29193218	-1.0700897	1.0790855	0.13969668	-0.79830057	0.90914028	-0.29619496	-0.99196954	0.84924593	0.18281782
